<svg xmlns="http://www.w3.org/2000/svg" viewBox="0 0 512 512"><path d="M386.612 114.939H10.449C4.679 114.939 0 119.617 0 125.388v376.163C0 507.321 4.679 512 10.449 512h376.163c5.77 0 10.449-4.679 10.449-10.449V125.388c0-5.771-4.678-10.449-10.449-10.449zm-10.449 376.163H20.898V135.837h355.265v355.265z"/><path d="M502.633 0H126.469c-5.77 0-11.531 3.978-11.531 9.747V82.89c0 5.772 4.679 10.449 10.449 10.449s10.449-4.677 10.449-10.449V20.898h355.265v355.265h-51.163c-5.77 0-10.449 4.679-10.449 10.449s4.679 10.449 10.449 10.449h62.694c5.77 0 9.367-5.379 9.367-11.151V9.747C512 3.978 508.403 0 502.633 0z"/></svg>